<svg width="1019" height="1024" viewBox="0 0 1019 1024" fill="none" xmlns="http://www.w3.org/2000/svg">
<path d="M205.201 217.301C190.93 175.167 206.208 128.671 242.689 103.214L688.956 -208.206C723.721 -232.466 770.005 -232.169 804.456 -207.466L1258.4 118.044C1293.9 143.495 1308.77 189.035 1295.13 230.527L1128.04 739.044C1114.41 780.537 1075.42 808.381 1031.75 807.819L473.204 800.634C430.815 800.089 393.376 772.875 379.776 732.723L205.201 217.301Z" fill="black"/>
<circle cx="637.5" cy="637.5" r="185.5" fill="url(#paint0_linear_24_2)" fill-opacity="0.5"/>
<circle cx="349.919" cy="195.67" r="172.045" transform="rotate(135.69 349.919 195.67)" fill="url(#paint1_linear_24_2)" fill-opacity="0.5"/>
<defs>
<linearGradient id="paint0_linear_24_2" x1="637.5" y1="452" x2="637.5" y2="823" gradientUnits="userSpaceOnUse">
<stop stop-color="#0E0C0B"/>
<stop offset="1" stop-color="#D9D9D9" stop-opacity="0"/>
</linearGradient>
<linearGradient id="paint1_linear_24_2" x1="349.919" y1="23.6251" x2="349.919" y2="367.715" gradientUnits="userSpaceOnUse">
<stop stop-color="#2C2824"/>
<stop offset="1" stop-color="#D9D9D9" stop-opacity="0"/>
</linearGradient>
</defs>
</svg>
